# xmcd
#
# Track frame offsets:
#	150
#	19175
#	38205
#	57230
#	76792
#
# Disc length: 1282 seconds
#
# Revision: 1
# Processed by: cddbd v1.5.1PL0 Copyright (c) Steve Scherf et al.
# Submitted via: CDex 1.50Beta5
#
DISCID=32050005
DTITLE=川中美幸 - 宵待しぐれ
DYEAR=1900
DGENRE=Unclassifiable
TTITLE0=宵待しぐれ
TTITLE1=宵待しぐれ〜オリジナル・カラオケ
TTITLE2=宵待しぐれ〜一般用メロ入りカラオケ
TTITLE3=こんな橋
TTITLE4=こんな橋〜オリジナル・カラオケ
EXTD=
EXTT0=
EXTT1=
EXTT2=
EXTT3=
EXTT4=
PLAYORDER=
